<?xml version="1.0" encoding="UTF-8"?>
<svg width="44px" height="11px" viewBox="0 0 44 11" version="1.1" xmlns="http://www.w3.org/2000/svg" xmlns:xlink="http://www.w3.org/1999/xlink">
    <!-- Generator: Sketch 42 (36781) - http://www.bohemiancoding.com/sketch -->
    <title>…</title>
    <desc>Created with Sketch.</desc>
    <defs></defs>
    <g id="Page-1" stroke="none" stroke-width="1" fill="none" fill-rule="evenodd">
        <g id="Desktop" transform="translate(-490.000000, -1561.000000)" fill="#FFC85A">
            <g id="Group-2" transform="translate(469.000000, 1524.000000)">
                <path d="M26.6865385,47.85 C25.2865315,47.85 24.0948767,47.350005 23.1115385,46.35 C22.1282002,45.349995 21.6365385,44.150007 21.6365385,42.75 C21.6365385,41.349993 22.1282002,40.1583382 23.1115385,39.175 C24.0948767,38.1916617 25.2865315,37.7 26.6865385,37.7 C28.0865455,37.7 29.2782002,38.1916617 30.2615385,39.175 C31.2448767,40.1583382 31.7365385,41.349993 31.7365385,42.75 C31.7365385,44.150007 31.2448767,45.349995 30.2615385,46.35 C29.2782002,47.350005 28.0865455,47.85 26.6865385,47.85 Z M43.0865385,47.85 C41.6865315,47.85 40.4865435,47.350005 39.4865385,46.35 C38.4865335,45.349995 37.9865385,44.150007 37.9865385,42.75 C37.9865385,41.349993 38.4865335,40.1583382 39.4865385,39.175 C40.4865435,38.1916617 41.6865315,37.7 43.0865385,37.7 C44.453212,37.7 45.6282002,38.1916617 46.6115385,39.175 C47.5948767,40.1583382 48.0865385,41.349993 48.0865385,42.75 C48.0865385,44.150007 47.5948767,45.349995 46.6115385,46.35 C45.6282002,47.350005 44.453212,47.85 43.0865385,47.85 Z M59.4365385,47.85 C58.0365315,47.85 56.8448767,47.350005 55.8615385,46.35 C54.8782002,45.349995 54.3865385,44.150007 54.3865385,42.75 C54.3865385,41.349993 54.8782002,40.1583382 55.8615385,39.175 C56.8448767,38.1916617 58.0365315,37.7 59.4365385,37.7 C60.8365455,37.7 62.0282002,38.1916617 63.0115385,39.175 C63.9948767,40.1583382 64.4865385,41.349993 64.4865385,42.75 C64.4865385,44.150007 63.9948767,45.349995 63.0115385,46.35 C62.0282002,47.350005 60.8365455,47.85 59.4365385,47.85 Z" id="…"></path>
            </g>
        </g>
    </g>
</svg>