<?xml version="1.0" encoding="UTF-8"?>
<svg width="1024px" height="1114px" viewBox="0 0 1024 1114" version="1.1" xmlns="http://www.w3.org/2000/svg" xmlns:xlink="http://www.w3.org/1999/xlink">
    <!-- Generator: Sketch 42 (36781) - http://www.bohemiancoding.com/sketch -->
    <title>Page 1 + Page 1 + Page 1 + Page 1 + Page 1 + Page 1 + Page 1 Mask</title>
    <desc>Created with Sketch.</desc>
    <defs>
        <rect id="path-1" x="0" y="0" width="1024" height="1243"></rect>
        <polygon id="path-3" points="0.00121695091 0.688448541 279.211133 0.688448541 279.211133 280.252982 0.00121695091 280.252982 0.00121695091 0.688448541"></polygon>
        <polygon id="path-5" points="-3.41060513e-13 319.68299 -3.41060513e-13 0.785309353 319.213913 0.785309353 319.213913 319.68299 -3.2346828e-13 319.68299"></polygon>
        <polygon id="path-7" points="0.000204971666 0.697312891 282.166045 0.697312891 282.166045 283.861885 0.000204971666 283.861885 0.000204971666 0.697312891"></polygon>
        <polygon id="path-9" points="68.9534177 0.221510085 0.797555605 0.419455141 0.797555605 7.1721 68.9534177 7.1721 68.9534177 0.221510085"></polygon>
        <path d="M50.8897744,0.8805 C45.0401783,5.72241696 36.8852898,9.55 25.721,9.55 C14.5042883,9.55 6.37198151,5.71651627 0.575463736,0.8805 L50.8897744,0.8805 L50.8897744,0.8805 Z" id="path-11"></path>
        <polygon id="path-13" points="3.47802178e-13 203.524747 3.47802178e-13 0.499133081 202.502528 0.499133081 202.502528 203.524747 3.41060513e-13 203.524747"></polygon>
        <polygon id="path-15" points="0.000695652174 0.392654676 159.606957 0.392654676 159.606957 159.841727 0.000695652174 159.841727 0.000695652174 0.392654676"></polygon>
        <polygon id="path-17" points="0.000536956522 0.607273381 246.393239 0.607273381 246.393239 247.208275 0.000536956522 247.208275"></polygon>
        <polygon id="path-19" points="122.336439 0.160288005 0.346372907 0.511413577 0.346372907 12.608536 122.336439 12.608536 122.336439 0.160288005"></polygon>
        <path d="M91.0051725,0.339763309 C80.534863,9.01390382 65.9385319,15.8710935 45.9563188,15.8710935 C25.8799461,15.8710935 11.3242575,9.00347964 0.949497385,0.339763309 L91.0051725,0.339763309 L91.0051725,0.339763309 Z" id="path-21"></path>
    </defs>
    <g id="Page-1" stroke="none" stroke-width="1" fill="none" fill-rule="evenodd">
        <g id="Desktop">
            <g id="Page-1-+-Page-1-+-Page-1-+-Page-1-+-Page-1-+-Page-1-+-Page-1-Mask">
                <mask id="mask-2" fill="white">
                    <use xlink:href="#path-1"></use>
                </mask>
                <g id="Mask"></g>
                <g id="Page-1" mask="url(#mask-2)">
                    <g transform="translate(84.472265, 660.955955) rotate(-25.000000) translate(-84.472265, -660.955955) translate(-55.527735, 519.955955)">
                        <g id="Group-3" stroke="none" stroke-width="1" fill="none" fill-rule="evenodd" transform="translate(0.000000, 0.547206)">
                            <mask id="mask-4" fill="white">
                                <use xlink:href="#path-3"></use>
                            </mask>
                            <g id="Clip-2"></g>
                            <path d="M279.212349,140.469497 C279.212349,217.669151 216.707722,280.252982 139.605769,280.252982 C62.5038158,280.252982 0.00121695091,217.669151 0.00121695091,140.469497 C0.00121695091,63.2678117 62.5038158,0.688042377 139.605769,0.688042377 C216.707722,0.688042377 279.212349,63.2678117 279.212349,140.469497" id="Fill-1" fill="#FFFFFF" opacity="0.348675272" mask="url(#mask-4)"></path>
                        </g>
                        <polyline id="Stroke-4" stroke="#403407" stroke-width="8.712" stroke-linecap="round" stroke-linejoin="round" fill="none" points="65.1525095 88.8420518 98.6653093 107.881005 65.4141539 126.749369"></polyline>
                        <polyline id="Stroke-6" stroke="#403407" stroke-width="8.612" stroke-linecap="round" stroke-linejoin="round" fill="none" points="214.058623 126.7514 181.316559 107.712447 213.803063 88.8420518"></polyline>
                        <path d="M110.413956,166.044956 C110.413956,166.044956 114.409612,222.398226 146.034109,221.59402 C177.654551,220.783722 178.701128,164.302511 178.701128,164.302511" id="Fill-8" stroke="none" fill="#FF5A58" fill-rule="evenodd"></path>
                        <path d="M193.015514,147.72796 C193.015514,147.72796 182.44021,169.89844 142.763554,169.89844 C103.084869,169.89844 92.9578096,147.90261 92.9578096,147.90261" id="Stroke-10" stroke="#403407" stroke-width="5.414" stroke-linecap="round" fill="none"></path>
                    </g>
                </g>
                <g id="Page-1" mask="url(#mask-2)">
                    <g transform="translate(932.137866, 602.553493) rotate(-9.000000) translate(-932.137866, -602.553493) translate(772.137866, 442.053493)">
                        <g id="Group-3" stroke="none" stroke-width="1" fill="none" fill-rule="evenodd" transform="translate(-0.000000, 0.531237)">
                            <mask id="mask-6" fill="white">
                                <use xlink:href="#path-5"></use>
                            </mask>
                            <g id="Clip-2"></g>
                            <path d="M159.60487,319.68299 C71.4564638,319.68299 -0.000927536232,248.293968 -0.000927536232,160.23276 C-0.000927536232,72.1692345 71.4564638,0.784846043 159.60487,0.784846043 C247.755594,0.784846043 319.215304,72.1692345 319.215304,160.23276 C319.215304,248.293968 247.755594,319.68299 159.60487,319.68299 Z" id="Fill-1" fill="#FFFFFF" opacity="0.341938406" mask="url(#mask-6)"></path>
                        </g>
                        <path d="M86.9507246,161.86343 L86.9507246,161.86343 C80.573913,161.86343 75.3565217,156.6512 75.3565217,150.280696 L75.3565217,110.127991 C75.3565217,103.757488 80.573913,98.5452576 86.9507246,98.5452576 C93.3275362,98.5452576 98.5449275,103.757488 98.5449275,110.127991 L98.5449275,150.280696 C98.5449275,156.6512 93.3275362,161.86343 86.9507246,161.86343" id="Fill-4" stroke="none" fill="#403407" fill-rule="evenodd"></path>
                        <path d="M232.264348,161.86343 L232.264348,161.86343 C225.887536,161.86343 220.670145,156.6512 220.670145,150.280696 L220.670145,110.127991 C220.670145,103.757488 225.887536,98.5452576 232.264348,98.5452576 C238.641159,98.5452576 243.858551,103.757488 243.858551,110.127991 L243.858551,150.280696 C243.858551,156.6512 238.641159,161.86343 232.264348,161.86343" id="Fill-6" stroke="none" fill="#403407" fill-rule="evenodd"></path>
                        <path d="M209.58887,221.507791 C209.58887,250.932568 188.825971,274.788367 163.212058,274.788367 C137.598145,274.788367 116.835246,250.932568 116.835246,221.507791 C116.835246,192.083014 137.598145,168.227216 163.212058,168.227216 C188.825971,168.227216 209.58887,192.083014 209.58887,221.507791" id="Fill-8" stroke="none" fill="#403407" fill-rule="evenodd"></path>
                        <path d="M69.1835362,62.3742331 C69.1835362,62.3742331 80.1423768,40.2210964 99.7736812,50.1984633" id="Stroke-10" stroke="#403407" stroke-width="4" stroke-linecap="round" fill="none"></path>
                        <path d="M219.601391,50.2869554 C239.153855,40.1474302 250.033855,62.1291424 250.033855,62.1291424" id="Stroke-12" stroke="#403407" stroke-width="4" stroke-linecap="round" fill="none"></path>
                    </g>
                </g>
                <g id="Page-1" mask="url(#mask-2)">
                    <g transform="translate(260.980091, 52.644024) rotate(17.000000) translate(-260.980091, -52.644024) translate(119.480091, -89.855976)">
                        <g id="Group-3" stroke="none" stroke-width="1" fill="none" fill-rule="evenodd" transform="translate(0.000000, 0.359657)">
                            <mask id="mask-8" fill="white">
                                <use xlink:href="#path-7"></use>
                            </mask>
                            <g id="Clip-2"></g>
                            <path d="M282.16625,142.278982 C282.16625,220.472646 219.000132,283.862296 141.082203,283.862296 C63.1642736,283.862296 0.000204971666,220.472646 0.000204971666,142.278982 C0.000204971666,64.0832604 63.1642736,0.695667315 141.082203,0.695667315 C219.000132,0.695667315 282.16625,64.0832604 282.16625,142.278982" id="Fill-1" fill="#FFFFFF" opacity="0.343580163" mask="url(#mask-8)"></path>
                        </g>
                        <path d="M76.8584306,143.408974 L76.8584306,143.408974 C71.2217098,143.408974 66.6098473,138.780791 66.6098473,133.124123 L66.6098473,108.440481 C66.6098473,102.783813 71.2217098,98.1556304 76.8584306,98.1556304 C82.4951514,98.1556304 87.1070139,102.783813 87.1070139,108.440481 L87.1070139,133.124123 C87.1070139,138.780791 82.4951514,143.408974 76.8584306,143.408974" id="Fill-4" stroke="none" fill="#403407" fill-rule="evenodd"></path>
                        <path d="M205.308025,143.408974 L205.308025,143.408974 C199.671304,143.408974 195.059441,138.780791 195.059441,133.124123 L195.059441,108.440481 C195.059441,102.783813 199.671304,98.1556304 205.308025,98.1556304 C210.944745,98.1556304 215.556608,102.783813 215.556608,108.440481 L215.556608,133.124123 C215.556608,138.780791 210.944745,143.408974 205.308025,143.408974" id="Fill-6" stroke="none" fill="#403407" fill-rule="evenodd"></path>
                        <path d="M106.579322,185.59085 C106.579322,185.59085 110.617264,242.671773 142.576446,241.855156 C174.531529,241.034425 175.589183,183.823913 175.589183,183.823913" id="Fill-8" stroke="none" fill="#FF5A58" fill-rule="evenodd"></path>
                        <path d="M190.055263,167.038008 C190.055263,167.038008 179.36804,189.493951 139.271483,189.493951 C99.172876,189.493951 88.9386407,167.21285 88.9386407,167.21285" id="Stroke-10" stroke="#403407" stroke-width="5.414" stroke-linecap="round" fill="none"></path>
                    </g>
                </g>
                <g id="Page-1" mask="url(#mask-2)">
                    <g transform="translate(44.483853, 266.826665) rotate(-16.000000) translate(-44.483853, -266.826665) translate(-24.516147, 197.326665)">
                        <g id="Group-10" transform="translate(-0.000000, 0.661000)">
                            <g id="Group-3" transform="translate(0.000000, -0.000000)" fill="#FFFFFF" opacity="0.334748641">
                                <path d="M68.8297,138.0001 C30.8157,138.0001 -0.0003,107.1831 -0.0003,69.1691 C-0.0003,31.1541 30.8157,0.3381 68.8297,0.3381 C106.8437,0.3381 137.6617,31.1541 137.6617,69.1691 C137.6617,107.1831 106.8437,138.0001 68.8297,138.0001 Z" id="Fill-1"></path>
                            </g>
                            <path d="M40.5113,69.0831 L34.4843,69.0831 C33.3913,69.0831 32.4973,68.1891 32.4973,67.0971 L32.4973,53.0441 C32.4973,50.3631 34.6913,48.1691 37.3723,48.1691 L37.6223,48.1691 C40.3033,48.1691 42.4973,50.3631 42.4973,53.0441 L42.4973,67.0971 C42.4973,68.1891 41.6033,69.0831 40.5113,69.0831" id="Fill-4" fill="#403407"></path>
                            <path d="M103.1773,69.0831 L97.1513,69.0831 C96.0583,69.0831 95.1633,68.1891 95.1633,67.0971 L95.1633,53.0441 C95.1633,50.3631 97.3583,48.1691 100.0383,48.1691 L100.2883,48.1691 C102.9703,48.1691 105.1633,50.3631 105.1633,53.0441 L105.1633,67.0971 C105.1633,68.1891 104.2703,69.0831 103.1773,69.0831" id="Fill-6" fill="#403407"></path>
                            <path d="M34.5768,79.4225 C33.0848,79.4265 32.0558,80.9375 32.6218,82.3175 C35.5598,89.4905 45.3758,107.5505 69.7218,107.5505 C94.0558,107.5505 104.0928,89.3655 107.1238,82.1295 C107.7048,80.7415 106.6668,79.2145 105.1628,79.2185 L34.5768,79.4225 Z" id="Fill-8" fill="#403407"></path>
                        </g>
                        <g id="Group-17" transform="translate(35.000000, 79.661000)">
                            <g id="Group-13">
                                <mask id="mask-10" fill="white">
                                    <use xlink:href="#path-9"></use>
                                </mask>
                                <g id="Clip-12"></g>
                                <path d="M2.7213,-0.3939 C1.3633,-0.3929 0.4253,0.0141 0.9413,0.3851 C3.6173,2.3141 12.5583,7.1721 34.7353,7.1721 C56.9013,7.1721 66.0433,2.2811 68.8043,0.3341 C69.3333,-0.0389 68.3883,-0.4499 67.0183,-0.4489 L2.7213,-0.3939 Z" id="Fill-11" fill="#FFFFFF" mask="url(#mask-10)"></path>
                            </g>
                            <g id="Group-16" transform="translate(9.000000, 19.000000)">
                                <mask id="mask-12" fill="white">
                                    <use xlink:href="#path-11"></use>
                                </mask>
                                <g id="Clip-15"></g>
                                <path d="M51.8365,15.2555 C51.8365,23.1945 39.9725,29.6305 25.3365,29.6305 C10.7005,29.6305 -1.1635,23.1945 -1.1635,15.2555 C-1.1635,7.3165 10.7005,0.8805 25.3365,0.8805 C39.9725,0.8805 51.8365,7.3165 51.8365,15.2555" id="Fill-14" fill="#FF5A58" mask="url(#mask-12)"></path>
                            </g>
                        </g>
                        <g id="Group-22" transform="translate(29.000000, 33.661000)" stroke-linecap="round">
                            <path d="M0.8355,6.4845 C0.8355,6.4845 5.5615,-3.0785 14.0275,1.2285" id="Stroke-18" stroke="#403407" stroke-width="4"></path>
                            <path d="M65.7037,1.2677 C74.1347,-3.1093 78.8267,6.3787 78.8267,6.3787" id="Stroke-20" stroke="#403407" stroke-width="4"></path>
                        </g>
                    </g>
                </g>
                <g id="Page-1" mask="url(#mask-2)">
                    <g transform="translate(985.435866, 230.033538) rotate(20.000000) translate(-985.435866, -230.033538) translate(883.935866, 127.533538)">
                        <g id="Group-3" stroke="none" stroke-width="1" fill="none" fill-rule="evenodd" transform="translate(0.000000, 0.976331)">
                            <mask id="mask-14" fill="white">
                                <use xlink:href="#path-13"></use>
                            </mask>
                            <g id="Clip-2"></g>
                            <path d="M98.092542,203.474446 C42.2013464,201.726784 -1.69372609,154.882072 0.049426087,98.8462806 C1.79404928,42.8090144 48.5164116,-1.19961871 104.407607,0.549517986 C160.298803,2.29717986 204.198288,49.1404173 202.452194,105.177683 C200.7061,161.213475 153.983738,205.222108 98.092542,203.474446 Z" id="Fill-1" fill="#FFFFFF" opacity="0.301290761" mask="url(#mask-14)"></path>
                        </g>
                        <path d="M41.3688993,92.2151942 C41.3688993,92.2151942 41.1850225,76.4832878 55.1596601,76.4832878 C69.1342978,76.4832878 68.8268558,92.0927842 68.8268558,92.0927842" id="Stroke-4" stroke="#403407" stroke-width="7" stroke-linecap="round" fill="none"></path>
                        <path d="M133.675059,92.2151942 C133.675059,92.2151942 133.491182,76.4832878 147.46582,76.4832878 C161.440457,76.4832878 161.133015,92.0927842 161.133015,92.0927842" id="Stroke-6" stroke="#403407" stroke-width="7" stroke-linecap="round" fill="none"></path>
                        <path d="M55.6036123,121.252191 C53.6736413,121.256615 52.3438442,123.216651 53.0749384,125.005608 C56.8745688,134.305824 69.5679529,157.720068 101.052076,157.720068 C132.520018,157.720068 145.498779,134.143594 149.417562,124.760788 C150.16925,122.962982 148.827685,120.982299 146.883004,120.986723 L55.6036123,121.252191 Z" id="Fill-8" stroke="none" fill="#FFFFFF" fill-rule="evenodd"></path>
                        <path d="M55.6036123,121.252191 C53.6736413,121.256615 52.3438442,123.216651 53.0749384,125.005608 C56.8745688,134.305824 69.5679529,157.720068 101.052076,157.720068 C132.520018,157.720068 145.498779,134.143594 149.417562,124.760788 C150.16925,122.962982 148.827685,120.982299 146.883004,120.986723 L55.6036123,121.252191 Z" id="Stroke-10" stroke="#FFFFFF" stroke-width="6.154" stroke-linecap="round" fill="none"></path>
                        <path d="M77.2119326,135.842586 C68.2755196,134.746795 59.3817659,132.608306 51.3382587,128.453737" id="Stroke-12" stroke="#F2F2F2" stroke-width="2.764" stroke-linecap="round" fill="none"></path>
                        <path d="M149.429624,129.538615 C142.782109,132.280306 135.806559,134.148903 128.725095,135.342032" id="Stroke-14" stroke="#F2F2F2" stroke-width="2.764" stroke-linecap="round" fill="none"></path>
                        <path d="M45.0923312,114.465658 C45.0923312,122.622888 38.4948312,129.235982 30.35865,129.235982 C22.2195268,129.235982 15.6264399,122.622888 15.6264399,114.465658 C15.6264399,106.306953 22.2195268,99.6938597 30.35865,99.6938597 C38.4948312,99.6938597 45.0923312,106.306953 45.0923312,114.465658" id="Fill-16" stroke="none" fill="#FF758A" fill-rule="evenodd"></path>
                    </g>
                </g>
                <g id="Page-1" mask="url(#mask-2)">
                    <g transform="translate(714.000000, 52.500000) rotate(-17.000000) translate(-714.000000, -52.500000) translate(634.000000, -28.000000)">
                        <g id="Group-3" stroke="none" stroke-width="1" fill="none" fill-rule="evenodd" transform="translate(-0.000000, 0.765619)">
                            <mask id="mask-16" fill="white">
                                <use xlink:href="#path-15"></use>
                            </mask>
                            <g id="Clip-2"></g>
                            <path d="M79.8024348,159.841842 C35.7282319,159.841842 0.000695652173,124.147332 0.000695652173,80.1167273 C0.000695652173,36.0849647 35.7282319,0.39161223 79.8024348,0.39161223 C123.877797,0.39161223 159.607652,36.0849647 159.607652,80.1167273 C159.607652,124.147332 123.877797,159.841842 79.8024348,159.841842 Z" id="Fill-1" fill="#FFFFFF" opacity="0.295855978" mask="url(#mask-16)"></path>
                        </g>
                        <path d="M43.4753623,78.4661878 L43.4753623,78.4661878 C40.2869565,78.4661878 37.6782609,75.8600727 37.6782609,72.6748209 L37.6782609,65.9244036 C37.6782609,62.7391518 40.2869565,60.1330367 43.4753623,60.1330367 C46.6637681,60.1330367 49.2724638,62.7391518 49.2724638,65.9244036 L49.2724638,72.6748209 C49.2724638,75.8600727 46.6637681,78.4661878 43.4753623,78.4661878" id="Fill-4" stroke="none" fill="#403407" fill-rule="evenodd"></path>
                        <path d="M104.766145,74.8047698 C104.766145,74.8047698 104.621217,62.4494676 115.63571,62.4494676 C126.650203,62.4494676 126.409043,74.7086331 126.409043,74.7086331" id="Stroke-6" stroke="#403407" stroke-width="7" stroke-linecap="round" fill="none"></path>
                        <path d="M108.401855,101.831342 C108.401855,101.831342 102.357797,122.969831 79.676058,122.969831 C56.9943188,122.969831 51.2053333,101.996975 51.2053333,101.996975" id="Stroke-8" stroke="#403407" stroke-width="7" stroke-linecap="round" fill="none"></path>
                    </g>
                </g>
                <g id="Page-1" mask="url(#mask-2)">
                    <g transform="translate(951.544985, 991.028675) rotate(25.000000) translate(-951.544985, -991.028675) translate(828.044985, 866.528675)">
                        <g id="Group-10" transform="translate(0.000000, 0.184094)">
                            <g id="Group-3">
                                <mask id="mask-18" fill="white">
                                    <use xlink:href="#path-17"></use>
                                </mask>
                                <g id="Clip-2"></g>
                                <path d="M246.393776,123.906699 C246.393776,192.003721 191.235812,247.208275 123.196262,247.208275 C55.1585007,247.208275 0.000536956522,192.003721 0.000536956522,123.906699 C0.000536956522,55.8078863 55.1585007,0.606915108 123.196262,0.606915108 C191.235812,0.606915108 246.393776,55.8078863 246.393776,123.906699" id="Fill-1" fill="#FFFFFF" opacity="0.303781703" mask="url(#mask-18)"></path>
                            </g>
                            <polyline id="Stroke-4" stroke="#403407" stroke-width="8.712" stroke-linecap="round" stroke-linejoin="round" points="55.7280326 81.4667094 85.301808 98.2607741 55.9589239 114.904364"></polyline>
                            <polyline id="Stroke-6" stroke="#403407" stroke-width="8.612" stroke-linecap="round" stroke-linejoin="round" points="187.132928 114.906155 158.237507 98.1120906 186.907406 81.4667094"></polyline>
                            <path d="M60.0163464,138.452778 C57.3458826,138.461735 55.5041217,141.16849 56.5171797,143.640576 C61.7757739,156.48826 79.3449913,188.842137 122.920803,188.842137 C166.475136,188.842137 184.441701,156.264339 189.864962,143.302008 C190.904868,140.817382 189.046999,138.080173 186.355057,138.08913 L60.0163464,138.452778 Z" id="Fill-8" fill="#403407"></path>
                        </g>
                        <g id="Group-17" transform="translate(61.855072, 138.119345)">
                            <g id="Group-13">
                                <mask id="mask-20" fill="white">
                                    <use xlink:href="#path-19"></use>
                                </mask>
                                <g id="Clip-12"></g>
                                <path d="M3.7905471,-0.943154676 C1.35992391,-0.941363309 -0.318960145,-0.214068345 0.602815217,0.450528777 C5.39425725,3.90786691 21.3973514,12.608536 61.0909674,12.608536 C100.764895,12.608536 117.12954,3.8487518 122.06954,0.360960432 C123.016373,-0.309010791 121.32496,-1.04347122 118.872859,-1.04167986 L3.7905471,-0.943154676 Z" id="Fill-11" fill="#FFFFFF" mask="url(#mask-20)"></path>
                            </g>
                            <g id="Group-16" transform="translate(15.108696, 35.035971)">
                                <mask id="mask-22" fill="white">
                                    <use xlink:href="#path-21"></use>
                                </mask>
                                <g id="Clip-15"></g>
                                <path d="M92.699637,26.0906626 C92.699637,40.3105331 71.4630065,51.8415619 45.2684775,51.8415619 C19.0721587,51.8415619 -2.16268188,40.3105331 -2.16268188,26.0906626 C-2.16268188,11.8690007 19.0721587,0.339763309 45.2684775,0.339763309 C71.4630065,0.339763309 92.699637,11.8690007 92.699637,26.0906626" id="Fill-14" fill="#FF5A58" mask="url(#mask-22)"></path>
                            </g>
                        </g>
                    </g>
                </g>
            </g>
        </g>
    </g>
</svg>